# Blender v2.79 (sub 0) OBJ File: ''
# www.blender.org
mtllib tree3.mtl
o studio.tree_gshaded_ref.mesh_2.001
v -0.319268 3.534353 -0.178557
v -0.189352 2.413518 -0.004430
v -0.419792 3.550654 -0.007641
v -0.095496 2.440934 -0.173864
v -0.118219 3.572636 -0.186707
v 0.104071 2.464397 -0.173864
v -0.017694 3.627221 -0.023695
v 0.205831 2.468349 -0.004430
v -0.118219 3.643522 0.147221
v 0.104071 2.520711 0.152408
v -0.319268 3.605239 0.155372
v -0.095496 2.484898 0.152408
v -0.632449 4.922430 -0.392449
v -0.712968 4.890321 -0.259075
v -0.471413 4.953550 -0.388744
v -0.390894 4.952562 -0.251418
v -0.471413 4.920207 -0.117550
v -0.632449 4.889086 -0.121502
v -0.382250 6.722237 -0.292171
v -0.459063 6.690128 -0.164478
v -0.228870 6.754098 -0.288219
v -0.152056 6.754098 -0.156574
v -0.228870 6.722237 -0.028634
v -0.382250 6.690128 -0.032586
v -0.426708 7.452829 -0.017766
vt 0.832031 -0.000000
vt 0.996094 -0.996094
vt 0.996094 -0.000000
vt 0.832031 -0.996094
vt 0.660156 -0.000000
vt 0.660156 -0.996094
vt 0.496094 -0.000000
vt 0.496094 -0.996094
vt 0.332031 -0.000000
vt 0.332031 -0.996094
vt 0.160156 -0.000000
vt 0.160156 -0.996094
vt 0.000000 -0.000000
vt 0.000000 -0.996094
vt 0.832031 -0.000000
vt 0.996094 -0.996094
vt 0.996094 -0.000000
vt 0.832031 -0.996094
vt 0.660156 -0.000000
vt 0.660156 -0.996094
vt 0.496094 -0.000000
vt 0.496094 -0.996094
vt 0.332031 -0.000000
vt 0.332031 -0.996094
vt 0.160156 -0.000000
vt 0.160156 -0.996094
vt 0.000000 -0.000000
vt 0.000000 -0.996094
vt 0.832031 -0.007813
vt 0.996094 -0.996094
vt 0.996094 -0.007813
vt 0.832031 -0.996094
vt 0.660156 -0.003906
vt 0.660156 -0.996094
vt 0.496094 -0.000000
vt 0.496094 -0.996094
vt 0.332031 -0.003906
vt 0.332031 -0.996094
vt 0.160156 -0.007813
vt 0.160156 -0.996094
vt 0.000000 -0.007813
vt 0.000000 -0.996094
vt 0.660156 -0.000000
vt 0.496094 -0.992188
vt 0.660156 -0.992188
vt 0.832031 -0.000000
vt 0.832031 -0.996094
vt 0.996094 -0.000000
vt 0.996094 -0.996094
vt 0.160156 -0.996094
vt 0.000000 -0.000000
vt 0.000000 -0.996094
vt 0.332031 -0.992188
vt 0.160156 -0.000000
vt 0.332031 -0.000000
vn -0.4903 -0.1761 -0.8536
vn -0.9806 -0.0986 -0.1693
vn -0.9748 -0.2207 0.0316
vn -0.3324 -0.0436 -0.9421
vn 0.4687 0.0515 -0.8819
vn 0.5743 0.0646 -0.8161
vn 0.9688 0.2465 -0.0261
vn 0.9954 0.0957 0.0029
vn 0.4856 0.2082 0.8490
vn 0.4251 0.0482 0.9039
vn -0.4746 -0.0243 0.8799
vn -0.6328 -0.0479 0.7728
vn -0.4732 -0.0831 -0.8770
vn -0.9999 -0.0136 0.0076
vn 0.5050 -0.0509 -0.8616
vn 0.9990 0.0450 -0.0083
vn 0.4673 0.1157 0.8765
vn -0.5089 0.0841 0.8567
vn -0.6013 0.1894 -0.7763
vn -0.9879 0.0932 0.1236
vn 0.3797 0.1796 -0.9075
vn 0.9920 0.0711 -0.1045
vn 0.5802 -0.0314 0.8139
vn -0.4051 -0.0184 0.9141
vn -0.1841 0.9708 0.1536
usemtl material_2.001
s 1
f 1/1/1 2/2/2 3/3/3
f 4/4/4 2/2/2 1/1/1
f 5/5/5 4/4/4 1/1/1
f 6/6/6 4/4/4 5/5/5
f 7/7/7 6/6/6 5/5/5
f 8/8/8 6/6/6 7/7/7
f 9/9/9 8/8/8 7/7/7
f 10/10/10 8/8/8 9/9/9
f 11/11/11 10/10/10 9/9/9
f 12/12/12 10/10/10 11/11/11
f 3/13/3 12/12/12 11/11/11
f 2/14/2 12/12/12 3/13/3
f 13/15/13 3/16/3 14/17/14
f 1/18/1 3/16/3 13/15/13
f 15/19/15 1/18/1 13/15/13
f 5/20/5 1/18/1 15/19/15
f 16/21/16 5/20/5 15/19/15
f 7/22/7 5/20/5 16/21/16
f 17/23/17 7/22/7 16/21/16
f 9/24/9 7/22/7 17/23/17
f 18/25/18 9/24/9 17/23/17
f 11/26/11 9/24/9 18/25/18
f 14/27/14 11/26/11 18/25/18
f 3/28/3 11/26/11 14/27/14
f 19/29/19 14/30/14 20/31/20
f 13/32/13 14/30/14 19/29/19
f 21/33/21 13/32/13 19/29/19
f 15/34/15 13/32/13 21/33/21
f 22/35/22 15/34/15 21/33/21
f 16/36/16 15/34/15 22/35/22
f 23/37/23 16/36/16 22/35/22
f 17/38/17 16/36/16 23/37/23
f 24/39/24 17/38/17 23/37/23
f 18/40/18 17/38/17 24/39/24
f 20/41/20 18/40/18 24/39/24
f 14/42/14 18/40/18 20/41/20
f 25/43/25 22/44/22 21/45/21
f 25/46/25 21/45/21 19/47/19
f 25/48/25 19/47/19 20/49/20
f 24/50/24 25/51/25 20/52/20
f 23/53/23 25/54/25 24/50/24
f 22/44/22 25/55/25 23/53/23
o studio.tree_gshaded_ref.mesh_4.001
v -2.477455 8.225163 0.176614
v -0.558106 5.809860 -0.207948
v -0.478822 3.581281 -0.063460
v -2.258623 5.842710 1.241382
v 1.932529 6.748170 -0.484575
v 0.141119 3.093972 0.125486
v -0.465979 5.230177 -0.120514
v 1.715920 6.994171 1.724492
v -3.293753 6.984292 0.907701
v -0.483762 4.903905 -0.093098
v -0.437328 2.677055 0.087944
v -2.717529 4.861917 -0.036538
v -0.643811 3.381714 -2.867523
v -0.407937 6.058578 -0.282785
v -0.623064 3.431111 -0.231906
v -0.428684 6.008687 -2.917662
v 1.682329 7.728716 0.637001
v -0.819173 3.034447 0.814585
v 0.717097 3.626233 -0.695998
v 0.324138 4.116752 2.400253
v -1.339578 3.075201 -0.263768
v 0.985821 5.017027 -2.327606
v 1.152291 3.762076 -0.066671
v -1.506049 4.330151 -2.524950
v 1.244171 7.920873 -0.363303
v -0.443997 7.367125 -0.134592
v -0.329147 5.450985 -0.217581
v 0.971990 7.395034 1.164322
v 0.335253 3.968558 2.399512
v -0.591449 6.646411 -0.214122
v -0.390894 3.927806 -0.227707
v 0.800332 9.251649 -1.834615
v 0.931977 8.631954 -1.088709
v -1.474187 4.366458 0.013601
v 0.674121 4.958490 -0.156574
v -1.283759 8.801882 -1.323842
v 2.217060 5.236352 -0.853577
v -0.041899 4.350156 0.891646
v -0.455358 5.036539 -1.573055
v 2.350928 7.699818 -0.063953
v -0.785335 4.350156 0.996863
v -2.639233 6.291736 -1.498711
v -0.371382 5.036539 -1.467838
v -3.053186 5.605353 0.965743
v 0.207806 4.515145 -2.187069
v 0.479000 5.186460 0.042499
v -1.464555 5.756017 -0.682660
v 1.808294 5.240304 -0.945950
v 0.328090 4.708537 2.053975
v -1.391446 3.034694 -0.002207
v 0.758344 3.626233 0.147221
v -1.821700 4.116505 1.904052
vt 0.000000 -0.995146
vt 0.000000 -0.000000
vt 0.996094 -0.995146
vt 0.996094 -0.995146
vt 0.000000 -0.000000
vt 0.996094 -0.000000
vt 0.000000 -0.995146
vt 0.996094 -0.995146
vt 0.000000 -0.000000
vt 0.996094 -0.000000
vt 0.000000 -0.995146
vt 0.000000 -0.000000
vt 0.996094 -0.995146
vt 0.996094 -0.000000
vt 0.000000 -0.995146
vt 0.996094 -0.995146
vt 0.000000 -0.000000
vt 0.996094 -0.000000
vt 0.996094 -0.995146
vt 0.000000 -0.000000
vt 0.996094 -0.000000
vt 0.996094 -0.995146
vt 0.000000 -0.000000
vt 0.996094 -0.000000
vt 0.000000 -0.995146
vt 0.000000 -0.000000
vt 0.996094 -0.995146
vt 0.000000 -0.000000
vt 0.996094 -0.995146
vt 0.996094 -0.000000
vt 0.000000 -0.995146
vt 0.000000 -0.000000
vt 0.996094 -0.995146
vt 0.996094 -0.000000
vt 0.000000 -0.995146
vt 0.996094 -0.000000
vt 0.000000 -0.995146
vt 0.000000 -0.995146
vt 0.000000 -0.995146
vt 0.000000 -0.000000
vt 0.996094 -0.995146
vt 0.996094 -0.000000
vt 0.000000 -0.995146
vt 0.996094 -0.995146
vt 0.000000 -0.000000
vt 0.996094 -0.000000
vt 0.000000 -0.995146
vt 0.996094 -0.000000
vt 0.000000 -0.000000
vt 0.996094 -0.995146
vt 0.996094 -0.000000
vt 0.000000 -0.995146
vn -0.0237 -0.0817 -0.9964
vn -0.0519 -0.9964 0.0673
vn 0.9966 -0.0817 -0.0063
vn 0.1746 0.1976 0.9646
vn 0.5155 -0.8338 0.1976
vn 0.2680 -0.8338 -0.4825
vn 0.2680 -0.8339 -0.4825
vn 0.2680 -0.8338 -0.4826
vn 0.2681 -0.8339 -0.4825
vn -0.6531 0.7358 -0.1793
vn -0.6734 -0.0722 0.7357
vn -0.9611 -0.0722 0.2668
vn -0.0557 0.4827 0.8740
vn 0.2680 -0.8338 0.4827
vn 0.2681 -0.8338 0.4827
vn -0.3413 -0.5507 0.7618
vn -0.0388 -0.8338 -0.5507
vn -0.3412 -0.5507 0.7618
vn 0.6477 0.0722 0.7585
vn 0.6292 0.7585 0.1698
vn -0.0426 0.1023 0.9938
vn -0.0022 0.9938 -0.1108
vn 0.0237 0.0816 0.9964
vn 0.0519 0.9964 -0.0672
vn 0.6734 0.0722 -0.7357
vn 0.6531 -0.7357 0.1793
vn 0.9207 -0.2671 0.2846
vn 0.9610 0.0722 -0.2669
vn 0.9610 0.0722 -0.2668
vn 0.0557 -0.4827 -0.8740
vn -0.2680 0.8338 -0.4827
vn -0.4574 0.8338 0.3090
vn -0.1205 0.3090 -0.9434
vn 0.4573 0.8339 0.3090
vn 0.4573 0.8339 0.3091
vn 0.0388 0.8338 0.5507
vn 0.3412 0.5507 -0.7618
vn -0.1935 0.8339 -0.5169
vn -0.1935 0.8338 -0.5170
vn -0.1936 0.8339 -0.5169
usemtl material_4.001
s 1
f 37/56/26 35/57/26 34/58/27
f 38/59/28 39/60/28 40/61/28
f 41/62/28 39/60/28 38/59/28
f 42/63/29 43/64/30 44/65/30
f 45/66/30 43/64/30 42/63/29
f 46/67/31 47/68/32 48/69/33
f 49/70/34 47/68/32 46/67/31
f 50/71/35 51/72/36 52/73/36
f 54/74/37 55/75/37 56/76/37
f 58/77/38 59/78/39 60/79/40
f 73/80/41 71/81/42 70/82/43
f 27/83/44 26/84/45 28/85/44
f 29/86/44 26/84/45 27/83/44
f 31/87/46 30/88/47 32/89/46
f 33/90/47 30/88/47 31/87/46
f 35/57/48 34/58/49 36/91/48
f 53/92/50 50/71/51 51/72/50
f 57/93/52 54/74/53 55/75/54
f 61/94/55 58/77/55 59/78/56
f 63/95/57 62/96/58 64/97/57
f 65/98/58 62/96/58 63/95/57
f 67/99/59 66/100/59 68/101/59
f 69/102/60 66/100/59 67/99/59
f 71/81/61 70/82/62 72/103/61
f 75/104/63 74/105/63 76/106/64
f 77/107/65 74/105/63 75/104/63
o studio.tree_gshaded_ref.mesh_0.001
v 0.105306 1.422599 -0.161515
v -0.154032 -0.037598 -0.280564
v -0.093273 1.422599 -0.161515
v 0.140872 -0.030930 -0.280564
v 0.204843 1.422599 0.018293
v 0.303144 -0.027719 0.001003
v 0.105306 1.393948 0.198101
v 0.140872 -0.030930 0.282570
v -0.093273 1.393948 0.198101
v -0.154032 -0.037598 0.282570
v -0.192809 1.422599 0.018293
v -0.279502 -0.034388 0.001003
vt 0.660156 -0.000000
vt 0.832031 -0.996094
vt 0.832031 -0.000000
vt 0.660156 -0.996094
vt 0.496094 -0.000000
vt 0.496094 -0.996094
vt 0.332031 -0.000000
vt 0.332031 -0.996094
vt 0.160156 -0.000000
vt 0.160156 -0.996094
vt 0.000000 -0.000000
vt 0.000000 -0.996094
vt 0.996094 -0.996094
vt 0.996094 -0.000000
vn 0.4296 0.0302 -0.9025
vn -0.3538 0.0906 -0.9309
vn -0.6752 0.0348 -0.7368
vn 0.6575 0.0784 -0.7494
vn 0.9992 0.0382 0.0100
vn 0.9807 0.0638 0.1848
vn 0.5999 0.0517 0.7984
vn 0.3263 0.0640 0.9431
vn -0.3318 0.0540 0.9418
vn -0.6832 0.0668 0.7271
vn -0.9842 0.0371 0.1733
vn -0.9823 0.0650 -0.1758
usemtl material_0.001
s 1
f 78/108/66 79/109/67 80/110/68
f 81/111/69 79/109/67 78/108/66
f 82/112/70 81/111/69 78/108/66
f 83/113/71 81/111/69 82/112/70
f 84/114/72 83/113/71 82/112/70
f 85/115/73 83/113/71 84/114/72
f 86/116/74 85/115/73 84/114/72
f 87/117/75 85/115/73 86/116/74
f 88/118/76 87/117/75 86/116/74
f 89/119/77 87/117/75 88/118/76
f 80/110/68 89/120/77 88/121/76
f 79/109/67 89/120/77 80/110/68
o studio.tree_gshaded_ref.mesh_3.001
v -0.487714 5.774294 0.267011
v -0.344707 8.250603 0.520423
v -0.448690 7.140389 -0.845179
v -0.382991 6.882779 1.632119
v -0.112785 5.427028 -0.785161
v -0.176508 8.157983 -1.099577
v -0.532172 6.933659 0.368524
v 0.888260 4.587266 -1.761014
v 0.372301 6.443881 -0.232153
v -0.387930 5.077292 -2.154714
v -1.119511 6.314458 -0.284267
v 0.403422 6.679014 -1.710627
v 0.284373 5.705137 -0.268707
v 0.556061 8.363477 -0.422087
v -0.910065 7.171756 -0.310201
v 2.381060 6.459441 -1.437952
v -0.298768 6.099578 0.573772
v 1.908077 5.965463 -1.135885
v -0.176755 6.323844 -1.013378
v 1.712462 7.552366 -0.971390
v -0.888577 6.792628 -0.253641
v -0.008309 6.887225 1.426624
v 0.383909 6.676297 0.159819
v -1.281042 7.003557 1.013165
v -0.621088 6.249006 -0.892354
v -1.813550 6.370277 1.226810
v -0.177249 6.099825 0.764200
v -2.257635 6.519212 -0.429497
v -0.795462 6.039065 0.399397
v 2.004650 7.169040 -0.796028
v 0.396012 5.889885 -0.834064
v 0.950008 8.402501 -1.370523
vt 0.000000 -0.000000
vt 0.996094 -0.995370
vt 0.996094 -0.000000
vt 0.000000 -0.995370
vt 0.000000 -0.000000
vt 0.996094 -0.995370
vt 0.996094 -0.000000
vt 0.000000 -0.995370
vt 0.000000 -0.000000
vt 0.996094 -0.995370
vt 0.996094 -0.000000
vt 0.000000 -0.000000
vt 0.996094 -0.995370
vt 0.996094 -0.000000
vt 0.000000 -0.995370
vt 0.000000 -0.000000
vt 0.996094 -0.995370
vt 0.996094 -0.000000
vt 0.996094 -0.995370
vt 0.000000 -0.000000
vt 0.996094 -0.000000
vt 0.000000 -0.995370
vt 0.000000 -0.995370
vt 0.996094 -0.995370
vt 0.000000 -0.000000
vt 0.996094 -0.000000
vt 0.000000 -0.995370
vt 0.996094 -0.995370
vt 0.000000 -0.000000
vt 0.996094 -0.000000
vt 0.000000 -0.995370
vt 0.000000 -0.995370
vn -0.9980 0.0543 0.0321
vn -0.9980 0.0544 0.0318
vn -0.9980 0.0543 0.0325
vn 0.9591 0.0544 0.2779
vn 0.9590 0.0544 0.2780
vn 0.9123 0.2784 0.3002
vn 0.0320 0.0543 0.9980
vn 0.1743 0.9838 0.0418
vn 0.1744 0.9838 0.0419
vn 0.1742 0.9838 0.0417
vn -0.0541 0.9837 -0.1713
vn 0.3097 -0.1713 -0.9353
vn -0.0541 0.9837 -0.1712
vn -0.2755 -0.1542 0.9488
vn 0.0908 -0.9838 -0.1543
vn -0.0497 -0.9980 0.0390
vn -0.0320 -0.0544 -0.9980
vn -0.2755 -0.1543 0.9488
vn -0.2756 -0.1543 0.9488
vn -0.1301 -0.9838 0.1235
vn -0.1300 -0.9838 0.1235
vn -0.3097 0.1712 0.9353
vn 0.0541 -0.9838 0.1712
usemtl material_3.001
s 1
f 90/122/78 91/123/78 92/124/79
f 93/125/80 91/123/78 90/122/78
f 94/126/81 95/127/81 96/128/82
f 97/129/83 95/127/81 94/126/81
f 102/130/84 103/131/84 104/132/84
f 114/133/85 115/134/85 116/135/86
f 117/136/87 115/134/85 114/133/85
f 118/137/88 119/138/89 120/139/90
f 99/140/91 98/141/92 100/142/92
f 101/143/92 98/141/92 99/140/91
f 105/144/93 102/130/94 103/131/94
f 107/145/95 106/146/92 108/147/92
f 109/148/96 106/146/92 107/145/95
f 111/149/97 110/150/97 112/151/97
f 113/152/98 110/150/97 111/149/97
f 121/153/99 118/137/100 119/138/99
o studio.tree_gshaded_ref.mesh_5.001
v 0.364150 4.486001 -1.068951
v -2.775324 4.759911 -0.831842
v -1.169650 3.844817 0.424096
v -1.241030 5.400847 -2.324889
v -0.693950 6.463886 0.125487
v 0.058625 5.084702 -2.615841
v -0.251593 4.371398 -0.521377
v -0.383732 7.176696 -1.968730
v 0.500735 5.633511 -0.978553
v -2.611570 5.907668 -1.453759
v -1.329699 4.992574 0.131168
v -0.102411 4.277048 -2.041099
v 0.857634 4.486000 0.595753
v -0.027080 4.760159 -2.424919
v -0.922167 3.844818 -0.593745
v 1.835709 5.604612 -0.046911
v -0.234303 3.468654 0.103010
v -0.655172 4.210361 1.419214
v -0.505003 3.150285 1.129990
v -0.384226 4.528976 0.391987
v 0.460476 6.349778 -0.221532
v -2.652076 6.898340 -0.221532
v -1.370205 5.068400 -0.221532
v -0.821396 8.180952 -0.221532
v -2.241087 6.493772 0.866947
v 0.014414 3.841853 2.793459
v 0.772423 3.242165 0.389023
v -2.726914 8.897714 0.031879
v -0.310623 3.264888 -0.113846
v 0.906044 4.245928 0.021504
v 0.787736 3.144605 -0.023695
v -0.193056 4.366952 -0.068894
v -0.115749 3.010242 1.256201
v 1.675661 6.107728 1.385377
v 0.097649 3.105334 -0.965710
v 1.442503 8.328898 1.395751
v -0.239737 3.747751 0.049167
v -1.623615 4.148861 -0.570281
v -1.112843 3.190297 -0.346756
v -0.750510 4.706809 -0.174358
v 0.135686 3.435805 -1.270247
v -3.152476 6.650116 0.103505
v -0.808552 3.435804 0.754320
v -2.273443 4.625796 0.449042
v 0.315000 7.288334 1.947276
v 0.088758 3.986837 -2.384413
v -0.903890 3.083104 -0.598438
v 1.569949 5.503100 1.469600
vt 0.000000 -0.995536
vt 0.996094 -0.995536
vt 0.000000 -0.000000
vt 0.000000 -0.000000
vt 0.996094 -0.995536
vt 0.996094 -0.000000
vt 0.000000 -0.995536
vt 0.000000 -0.995536
vt 0.996094 -0.995536
vt 0.000000 -0.000000
vt 0.000000 -0.995536
vt 0.996094 -0.995536
vt 0.000000 -0.000000
vt 0.000000 -0.000000
vt 0.996094 -0.995536
vt 0.996094 -0.000000
vt 0.000000 -0.000000
vt 0.996094 -0.995536
vt 0.996094 -0.000000
vt 0.000000 -0.995536
vt 0.000000 -0.995536
vt 0.996094 -0.995536
vt 0.000000 -0.000000
vt 0.996094 -0.995536
vt 0.000000 -0.000000
vt 0.996094 -0.000000
vt 0.000000 -0.995536
vt 0.996094 -0.995536
vt 0.000000 -0.000000
vt 0.996094 -0.000000
vt 0.000000 -0.995536
vt 0.996094 -0.000000
vt 0.996094 -0.995536
vt 0.000000 -0.000000
vt 0.996094 -0.000000
vt 0.000000 -0.995536
vt 0.996094 -0.000000
vt 0.996094 -0.000000
vt 0.000000 -0.995536
vt 0.996094 -0.995536
vt 0.000000 -0.000000
vt 0.996094 -0.000000
vt 0.000000 -0.995536
vt 0.996094 -0.000000
vt 0.996094 -0.995536
vt 0.000000 -0.000000
vt 0.996094 -0.000000
vt 0.000000 -0.995536
vn 0.3168 0.5000 -0.8060
vn -0.0001 0.8660 0.5000
vn -0.4532 0.8660 0.2113
vn -0.1048 0.2113 -0.9718
vn -0.0000 -0.0000 1.0000
vn 0.3551 -0.2420 -0.9030
vn 0.0000 0.9703 -0.2420
vn 0.0852 0.0317 -0.9959
vn -0.4069 0.9135 0.0000
vn -0.0443 0.0000 -0.9990
vn 0.3659 -0.0000 -0.9307
vn 0.3658 0.0001 -0.9307
vn -0.0000 1.0000 0.0000
vn -0.1124 -0.8660 -0.4873
vn -0.1124 -0.8660 -0.4872
vn 0.9703 0.1454 0.1932
vn 0.0001 -0.8660 -0.5001
vn -0.9601 -0.0617 -0.2726
vn -0.9602 -0.0616 -0.2723
vn -0.9602 -0.0617 -0.2726
vn -0.9602 -0.0615 -0.2724
vn 0.0000 0.0000 -1.0000
vn -0.0000 -0.9703 0.2420
vn -0.3551 0.2420 0.9030
vn -0.0854 -0.0315 0.9959
vn 0.4102 0.0058 -0.9120
vn -0.3659 -0.0001 0.9307
vn 0.0001 -1.0000 0.0001
vn 0.0001 -1.0000 0.0000
vn 0.1559 -0.9135 -0.3757
vn -0.1893 -0.3757 0.9072
vn 0.1559 -0.9136 -0.3757
usemtl material_5.001
s 1
f 133/154/101 131/155/102 130/156/102
f 134/157/103 135/158/103 136/159/103
f 137/160/104 135/158/103 134/157/103
f 145/161/105 143/162/105 142/163/105
f 149/164/106 147/165/107 146/166/106
f 150/167/108 151/168/108 152/169/108
f 154/170/109 155/171/110 156/172/109
f 157/173/110 155/171/110 154/170/109
f 165/174/111 163/175/112 162/176/113
f 123/177/114 122/178/114 124/179/114
f 125/180/115 122/178/114 123/177/114
f 127/181/116 126/182/116 128/183/116
f 129/184/116 126/182/116 127/181/116
f 131/155/117 130/156/117 132/185/117
f 139/186/118 138/187/119 140/188/120
f 141/189/121 138/187/119 139/186/118
f 143/162/122 142/163/122 144/190/122
f 147/165/123 146/166/124 148/191/123
f 153/192/125 150/167/125 151/168/125
f 159/193/126 158/194/126 160/195/126
f 161/196/126 158/194/126 159/193/126
f 163/175/127 162/176/128 164/197/129
f 167/198/130 166/199/131 168/200/132
f 169/201/131 166/199/131 167/198/130
o studio.tree_gshaded_ref.mesh_1.001
v 0.105306 1.422599 -0.161515
v 0.104071 2.464397 -0.173864
v 0.205831 2.468349 -0.004430
v -0.095496 2.440934 -0.173864
v -0.093273 1.422599 -0.161515
v -0.189352 2.413518 -0.004430
v -0.192809 1.422599 0.018293
v 0.104071 2.520711 0.152408
v 0.105306 1.393948 0.198101
v 0.204843 1.422599 0.018293
v -0.093273 1.393948 0.198101
v -0.095496 2.484898 0.152408
vt 0.660156 -0.996094
vt 0.660156 -0.000000
vt 0.496094 -0.000000
vt 0.832031 -0.000000
vt 0.832031 -0.996094
vt 0.996094 -0.000000
vt 0.996094 -0.996094
vt 0.332031 -0.000000
vt 0.332031 -0.996094
vt 0.496094 -0.996094
vt 0.160156 -0.996094
vt 0.160156 -0.000000
vt 0.000000 -0.996094
vt 0.000000 -0.000000
vn 0.4296 0.0302 -0.9025
vn 0.5743 0.0646 -0.8161
vn 0.9954 0.0957 0.0029
vn -0.3324 -0.0436 -0.9421
vn -0.6752 0.0348 -0.7368
vn -0.9806 -0.0986 -0.1693
vn -0.9842 0.0371 0.1733
vn 0.4251 0.0482 0.9039
vn 0.5999 0.0517 0.7984
vn 0.9992 0.0382 0.0100
vn -0.3318 0.0540 0.9418
vn -0.6328 -0.0479 0.7728
usemtl material_1.001
s 1
f 170/202/133 171/203/134 172/204/135
f 173/205/136 171/203/134 170/202/133
f 174/206/137 173/205/136 170/202/133
f 175/207/138 173/205/136 174/206/137
f 176/208/139 175/207/138 174/206/137
f 177/209/140 178/210/141 179/211/142
f 180/212/143 178/210/141 177/209/140
f 181/213/144 180/212/143 177/209/140
f 176/214/139 180/212/143 181/213/144
f 175/215/138 176/214/139 181/213/144
f 172/204/135 179/211/142 170/202/133
f 177/209/140 179/211/142 172/204/135
