# Blender v2.79 (sub 0) OBJ File: ''
# www.blender.org
mtllib sky2.mtl
o Cube_Cube.020
v -1.000000 -0.019792 -1.000000
v 1.000000 -0.019792 -1.000000
v 1.000000 -0.019792 1.000000
v -1.000000 -0.019792 1.000000
v 1.000000 0.710882 1.000000
v -1.000000 0.710882 1.000000
v -1.000000 0.710882 -1.000000
v 1.000000 0.710882 -1.000000
vt 0.750000 -0.000000
vt 0.750000 0.333333
vt 1.000000 0.333333
vt 1.000000 -0.000000
vt 0.500000 0.333333
vt 0.250000 0.333333
vt 0.250000 0.666667
vt 0.500000 0.666667
vt 0.000000 0.333333
vt 0.000000 0.666667
vt 1.000000 0.333333
vt 0.750000 0.333333
vt 0.750000 0.666667
vt 1.000000 0.666667
vt 0.500000 1.000000
vt 0.250000 1.000000
vn 0.0000 1.0000 0.0000
vn 0.0000 0.0000 -1.0000
vn 1.0000 0.0000 0.0000
vn 0.0000 -0.0000 1.0000
vn -1.0000 0.0000 0.0000
vn 0.0000 -1.0000 -0.0000
usemtl None
s 1
f 1/1/1 4/2/1 3/3/1 2/4/1
f 3/5/2 4/6/2 6/7/2 5/8/2
f 4/6/3 1/9/3 7/10/3 6/7/3
f 1/11/4 2/12/4 8/13/4 7/14/4
f 2/12/5 3/5/5 5/8/5 8/13/5
f 8/15/6 5/8/6 6/7/6 7/16/6
